<svg xmlns="http://www.w3.org/2000/svg" width="1200" height="760" viewBox="0 0 1200 760"><rect width="1200" height="760" fill="#fbfaf7"/><rect x="6" y="6" width="1188" height="748" fill="none" stroke="#1a2733" stroke-width="2"/><polygon points="90,194 174,194 160,120 104,120" fill="white" stroke="#1a2733" stroke-width="2.2"/><path d="M 108 132 q 8 -10 16 0 q 8 -10 16 0 q 8 -10 16 0" fill="none" stroke="#1a2733" stroke-width="1.6"/><text x="132.0" y="112" font-size="13" text-anchor="middle" font-family="Helvetica, Arial" font-weight="bold" fill="#1a2733">CT-101</text><polygon points="300,179.0 315.0,194 300,209.0 285.0,194" fill="white" stroke="#1a2733" stroke-width="2.2"/><line x1="292" y1="202" x2="308" y2="186" stroke="#1a2733" stroke-width="1.4"/><text x="300" y="171.0" font-size="11" text-anchor="middle" font-family="Helvetica, Arial" font-weight="bold" fill="#1a2733">STR-101</text><circle cx="440" cy="194" r="26" fill="white" stroke="#1a2733" stroke-width="2.2"/><polygon points="428,180 428,208 456,194" fill="none" stroke="#1a2733" stroke-width="2"/><text x="440" y="160" font-size="13" text-anchor="middle" font-family="Helvetica, Arial" font-weight="bold" fill="#1a2733">P-101</text><text x="440" y="236" font-size="10" text-anchor="middle" font-family="Helvetica, Arial" font-weight="normal" fill="#5a6b7a">CW SUPPLY A</text><circle cx="440" cy="330" r="26" fill="white" stroke="#1a2733" stroke-width="2.2"/><polygon points="428,316 428,344 456,330" fill="none" stroke="#1a2733" stroke-width="2"/><text x="440" y="296" font-size="13" text-anchor="middle" font-family="Helvetica, Arial" font-weight="bold" fill="#1a2733">P-102</text><text x="440" y="372" font-size="10" text-anchor="middle" font-family="Helvetica, Arial" font-weight="normal" fill="#5a6b7a">CW SUPPLY B (STANDBY)</text><polygon points="574,162 596,162 585,144" fill="white" stroke="#1a2733" stroke-width="2"/><polyline points="585,144 585,132 599,132" fill="none" stroke="#1a2733" stroke-width="2"/><path d="M 575 126 l 20 0 m -20 4 l 20 0" stroke="#1a2733" stroke-width="1.3"/><text x="585" y="178" font-size="11" text-anchor="middle" font-family="Helvetica, Arial" font-weight="bold" fill="#1a2733">PSV-1101</text><circle cx="760" cy="194" r="30" fill="white" stroke="#1a2733" stroke-width="2.2"/><polyline points="730,194 745.0,180 760,208 775.0,180 790,194" fill="none" stroke="#1a2733" stroke-width="2"/><text x="760" y="156" font-size="13" text-anchor="middle" font-family="Helvetica, Arial" font-weight="bold" fill="#1a2733">E-201</text><circle cx="760" cy="470" r="30" fill="white" stroke="#1a2733" stroke-width="2.2"/><polyline points="730,470 745.0,456 760,484 775.0,456 790,470" fill="none" stroke="#1a2733" stroke-width="2"/><text x="760" y="432" font-size="13" text-anchor="middle" font-family="Helvetica, Arial" font-weight="bold" fill="#1a2733">E-202</text><circle cx="1000" cy="330" r="26" fill="white" stroke="#1a2733" stroke-width="2.2"/><polygon points="988,316 988,344 1016,330" fill="none" stroke="#1a2733" stroke-width="2"/><text x="1000" y="296" font-size="13" text-anchor="middle" font-family="Helvetica, Arial" font-weight="bold" fill="#1a2733">P-103</text><text x="1000" y="372" font-size="10" text-anchor="middle" font-family="Helvetica, Arial" font-weight="normal" fill="#5a6b7a">CW BOOSTER</text><circle cx="368" cy="128" r="15" fill="white" stroke="#1a2733" stroke-width="1.6"/><line x1="353" y1="128" x2="383" y2="128" stroke="#1a2733" stroke-width="1"/><text x="368" y="125" font-size="8.5" text-anchor="middle" font-family="Helvetica, Arial" font-weight="bold" fill="#1a2733">PI</text><text x="368" y="138" font-size="8.5" text-anchor="middle" font-family="Helvetica, Arial" font-weight="normal" fill="#1a2733">1101</text><circle cx="640" cy="258" r="15" fill="white" stroke="#1a2733" stroke-width="1.6"/><line x1="625" y1="258" x2="655" y2="258" stroke="#1a2733" stroke-width="1"/><text x="640" y="255" font-size="8.5" text-anchor="middle" font-family="Helvetica, Arial" font-weight="bold" fill="#1a2733">TI</text><text x="640" y="268" font-size="8.5" text-anchor="middle" font-family="Helvetica, Arial" font-weight="normal" fill="#1a2733">1103</text><circle cx="545" cy="128" r="15" fill="white" stroke="#1a2733" stroke-width="1.6"/><line x1="530" y1="128" x2="560" y2="128" stroke="#1a2733" stroke-width="1"/><text x="545" y="125" font-size="8.5" text-anchor="middle" font-family="Helvetica, Arial" font-weight="bold" fill="#1a2733">FI</text><text x="545" y="138" font-size="8.5" text-anchor="middle" font-family="Helvetica, Arial" font-weight="normal" fill="#1a2733">1102</text><polygon points="628,182 628,206 652,182 652,206" fill="white" stroke="#1a2733" stroke-width="2"/><text x="640" y="220" font-size="10" text-anchor="middle" font-family="Helvetica, Arial" font-weight="bold" fill="#1a2733">MOV-110</text><polyline points="132,194 270,194" fill="none" stroke="#2b6cb0" stroke-width="2.4"/><polygon points="270,194 260.0,198.5 260.0,189.5" fill="#2b6cb0"/><text x="270" y="186" font-size="9.5" text-anchor="middle" font-family="Helvetica, Arial" font-weight="normal" fill="#2b6cb0">CW SUPPLY HDR</text><polyline points="315,194 414,194" fill="none" stroke="#2b6cb0" stroke-width="2.4"/><polygon points="414,194 404.0,198.5 404.0,189.5" fill="#2b6cb0"/><polyline points="300,194 300,330 414,330" fill="none" stroke="#2b6cb0" stroke-width="2.4" stroke-dasharray="7,5"/><polygon points="414,330 404.0,334.5 404.0,325.5" fill="#2b6cb0"/><polyline points="466,194 585,194 585,162" fill="none" stroke="#2b6cb0" stroke-width="2.4"/><polygon points="585,162 589.5,172.0 580.5,172.0" fill="#2b6cb0"/><text x="585" y="186" font-size="9.5" text-anchor="middle" font-family="Helvetica, Arial" font-weight="normal" fill="#2b6cb0">RELIEF</text><polyline points="466,194 628,194" fill="none" stroke="#2b6cb0" stroke-width="2.4"/><polygon points="628,194 618.0,198.5 618.0,189.5" fill="#2b6cb0"/><polyline points="652,194 730,194" fill="none" stroke="#2b6cb0" stroke-width="2.4"/><polygon points="730,194 720.0,198.5 720.0,189.5" fill="#2b6cb0"/><polyline points="466,330 700,330 700,214 730,214" fill="none" stroke="#2b6cb0" stroke-width="2.4" stroke-dasharray="7,5"/><polygon points="730,214 720.0,218.5 720.0,209.5" fill="#2b6cb0"/><polyline points="790,194 900,194 900,90 110,90 110,118" fill="none" stroke="#2b6cb0" stroke-width="2.4"/><polygon points="110,118 105.5,108.0 114.5,108.0" fill="#2b6cb0"/><text x="900" y="82" font-size="9.5" text-anchor="middle" font-family="Helvetica, Arial" font-weight="normal" fill="#2b6cb0">CW RETURN</text><polyline points="790,214 860,214 860,330 974,330" fill="none" stroke="#2b6cb0" stroke-width="2.4"/><polygon points="974,330 964.0,334.5 964.0,325.5" fill="#2b6cb0"/><text x="860" y="322" font-size="9.5" text-anchor="middle" font-family="Helvetica, Arial" font-weight="normal" fill="#2b6cb0">TAP TO A2 HDR</text><polyline points="1026,330 1140,330" fill="none" stroke="#2b6cb0" stroke-width="2.4"/><polygon points="1140,330 1130.0,334.5 1130.0,325.5" fill="#2b6cb0"/><text x="1140" y="322" font-size="9.5" text-anchor="middle" font-family="Helvetica, Arial" font-weight="normal" fill="#2b6cb0">TO AREA 2 CRUDE PREHEAT</text><polyline points="1140,470 790,470" fill="none" stroke="#2b6cb0" stroke-width="2.4"/><polygon points="790,470 800.0,465.5 800.0,474.5" fill="#2b6cb0"/><text x="790" y="462" font-size="9.5" text-anchor="middle" font-family="Helvetica, Arial" font-weight="normal" fill="#2b6cb0">TRIM CW FROM AREA 2</text><polyline points="730,470 150,470 150,200" fill="none" stroke="#2b6cb0" stroke-width="2.4"/><polygon points="150,200 154.5,210.0 145.5,210.0" fill="#2b6cb0"/><text x="150" y="462" font-size="9.5" text-anchor="middle" font-family="Helvetica, Arial" font-weight="normal" fill="#2b6cb0">TRIM RETURN</text><text x="1140" y="316" font-size="11" text-anchor="middle" font-family="Helvetica, Arial" font-weight="bold" fill="#1a2733">AREA 2</text><text x="210" y="640" font-size="10" text-anchor="start" font-family="Helvetica, Arial" font-weight="normal" fill="#1a2733">NOTES: 1. STR-101 D/P GAUGE LOCAL. 2. SEAL FLUSH PLAN 11 ON P-101/102/103.</text><text x="210" y="658" font-size="10" text-anchor="start" font-family="Helvetica, Arial" font-weight="normal" fill="#1a2733">3. MONSOON MODE: WEEKLY SEAL FLUSH VERIFICATION PER SOP-CW-012 REV 3.</text><rect x="770" y="686" width="424" height="68" fill="white" stroke="#1a2733" stroke-width="1.6"/><text x="782" y="708" font-size="13" font-family="Helvetica" font-weight="bold" fill="#1a2733">COOLING WATER SYSTEM — AREA 1</text><text x="782" y="728" font-size="11" font-family="Helvetica" fill="#1a2733">DWG NO: D-CW-104   REV 3   BHARAT PETROCHEM LTD — UNIT 4</text><text x="782" y="744" font-size="9" font-family="Helvetica" fill="#5a6b7a">SCALE NTS | ISO 10628 SYMBOLOGY | FOR OPERATION &amp; MAINTENANCE</text></svg>