<svg xmlns="http://www.w3.org/2000/svg" width="1200" height="760" viewBox="0 0 1200 760"><rect width="1200" height="760" fill="#fbfaf7"/><rect x="6" y="6" width="1188" height="748" fill="none" stroke="#1a2733" stroke-width="2"/><rect x="200" y="160" width="110" height="130" rx="10" fill="white" stroke="#1a2733" stroke-width="2.2"/><line x1="200" y1="178" x2="310" y2="178" stroke="#1a2733" stroke-width="1"/><text x="255.0" y="152" font-size="13" text-anchor="middle" font-family="Helvetica, Arial" font-weight="bold" fill="#1a2733">TK-401</text><circle cx="520" cy="230" r="26" fill="white" stroke="#1a2733" stroke-width="2.2"/><polygon points="508,216 508,244 536,230" fill="none" stroke="#1a2733" stroke-width="2"/><text x="520" y="196" font-size="13" text-anchor="middle" font-family="Helvetica, Arial" font-weight="bold" fill="#1a2733">P-107</text><text x="520" y="272" font-size="10" text-anchor="middle" font-family="Helvetica, Arial" font-weight="normal" fill="#5a6b7a">EFFLUENT TRANSFER</text><polygon points="648,218 648,242 672,218 672,242" fill="white" stroke="#1a2733" stroke-width="2"/><text x="660" y="256" font-size="10" text-anchor="middle" font-family="Helvetica, Arial" font-weight="bold" fill="#1a2733">MOV-410</text><circle cx="180" cy="120" r="15" fill="white" stroke="#1a2733" stroke-width="1.6"/><line x1="165" y1="120" x2="195" y2="120" stroke="#1a2733" stroke-width="1"/><text x="180" y="117" font-size="8.5" text-anchor="middle" font-family="Helvetica, Arial" font-weight="bold" fill="#1a2733">LI</text><text x="180" y="130" font-size="8.5" text-anchor="middle" font-family="Helvetica, Arial" font-weight="normal" fill="#1a2733">4011</text><text x="255" y="320" font-size="10" text-anchor="middle" font-family="Helvetica, Arial" font-weight="normal" fill="#8a2c2c">EQUALIZATION TANK — CONFINED SPACE (ENTRY PER SOP-ET-005)</text><polyline points="310,230 494,230" fill="none" stroke="#2b6cb0" stroke-width="2.4"/><polygon points="494,230 484.0,234.5 484.0,225.5" fill="#2b6cb0"/><polyline points="546,230 648,230" fill="none" stroke="#2b6cb0" stroke-width="2.4"/><polygon points="648,230 638.0,234.5 638.0,225.5" fill="#2b6cb0"/><polyline points="672,230 860,230" fill="none" stroke="#2b6cb0" stroke-width="2.4"/><polygon points="860,230 850.0,234.5 850.0,225.5" fill="#2b6cb0"/><text x="860" y="222" font-size="9.5" text-anchor="middle" font-family="Helvetica, Arial" font-weight="normal" fill="#2b6cb0">TO ETP OUTFALL</text><text x="880" y="234" font-size="11" text-anchor="start" font-family="Helvetica, Arial" font-weight="bold" fill="#1a2733">ETP</text><rect x="770" y="686" width="424" height="68" fill="white" stroke="#1a2733" stroke-width="1.6"/><text x="782" y="708" font-size="13" font-family="Helvetica" font-weight="bold" fill="#1a2733">EFFLUENT TREATMENT — AREA 4</text><text x="782" y="728" font-size="11" font-family="Helvetica" fill="#1a2733">DWG NO: D-ET-401   REV 1   BHARAT PETROCHEM LTD — UNIT 4</text><text x="782" y="744" font-size="9" font-family="Helvetica" fill="#5a6b7a">SCALE NTS | ISO 10628 SYMBOLOGY | FOR OPERATION &amp; MAINTENANCE</text></svg>